<?xml version="1.0" encoding="utf-8"?>
<!-- Generator: Adobe Illustrator 24.2.1, SVG Export Plug-In . SVG Version: 6.00 Build 0)  -->
<svg version="1.1" id="Layer_1" xmlns="http://www.w3.org/2000/svg" xmlns:xlink="http://www.w3.org/1999/xlink" x="0px" y="0px"
	 viewBox="0 0 1366 768" style="enable-background:new 0 0 1366 768;" xml:space="preserve">
<style type="text/css">
	.st0{fill:none;stroke:#000000;stroke-miterlimit:10;}
	.st1{fill-rule:evenodd;clip-rule:evenodd;fill:#FFFF00;}
	.st2{fill-rule:evenodd;clip-rule:evenodd;fill:#FF0000;stroke:#000000;stroke-miterlimit:10;}
	.st3{fill:#FF0000;}
	.st4{fill:#FFFF00;stroke:#000000;stroke-miterlimit:10;}
	.st5{fill:none;stroke:#FFFFFF;stroke-miterlimit:10;}
	.st6{fill-rule:evenodd;clip-rule:evenodd;fill:#FFFFFF;}
</style>
<g>
</g>
<g>
</g>
<g>
	<path class="st5" d="M975.4,363.01c-0.02-1.67-0.36-10.42-4.93-19.19c-6.04-11.58-16.91-18.31-30.6-18.93
		c-58.05-2.61-100.68-18.44-130.35-48.41l-7.43-7.51c-25.83-29.26-39.6-69.8-42.02-123.57c-0.62-13.69-7.34-24.56-18.93-30.6
		c-8.77-4.57-17.52-4.91-19.19-4.93h-1.35c-1.67,0.02-10.42,0.36-19.19,4.93c-11.59,6.04-18.31,16.91-18.93,30.6
		c-2.4,53.45-16.03,93.83-41.56,123.05l-0.07-0.07l-8.02,8.1c-29.67,29.97-72.3,45.8-130.35,48.41
		c-13.69,0.62-24.56,7.34-30.6,18.93c-4.57,8.77-4.91,17.53-4.93,19.19v1.35c0.02,1.67,0.36,10.42,4.93,19.19
		c6.04,11.58,16.91,18.31,30.6,18.93c58.05,2.61,100.68,18.44,130.35,48.41l8.02,8.1l0.1-0.1c25.52,29.22,39.14,69.59,41.54,123.02
		c0.62,13.69,7.34,24.56,18.93,30.6c8.77,4.57,17.52,4.91,19.19,4.93h1.35c1.67-0.02,10.42-0.36,19.19-4.93
		c11.58-6.04,18.31-16.91,18.93-30.6c2.4-53.47,16.04-93.85,41.59-123.07l7.86-7.94c29.67-29.97,72.3-45.8,130.35-48.41
		c13.69-0.62,24.56-7.34,30.6-18.93c4.57-8.77,4.91-17.53,4.93-19.19V363.01z"/>
	<path class="st6" d="M975.4,363.01c-0.02-1.67-0.36-10.42-4.93-19.19c-6.04-11.58-16.91-18.31-30.6-18.93
		c-58.05-2.61-100.68-18.44-130.35-48.41l-7.43-7.51c-25.83-29.26-39.6-69.8-42.02-123.57c-0.62-13.69-7.34-24.56-18.93-30.6
		c-8.77-4.57-17.52-4.91-19.19-4.93h-1.35c-1.67,0.02-10.42,0.36-19.19,4.93c-11.59,6.04-18.31,16.91-18.93,30.6
		c-2.4,53.45-16.03,93.83-41.56,123.05l-0.07-0.07l-8.02,8.1c-29.67,29.97-72.3,45.8-130.35,48.41
		c-13.69,0.62-24.56,7.34-30.6,18.93c-4.57,8.77-4.91,17.53-4.93,19.19v1.35c0.02,1.67,0.36,10.42,4.93,19.19
		c6.04,11.58,16.91,18.31,30.6,18.93c58.05,2.61,100.68,18.44,130.35,48.41l8.02,8.1l0.1-0.1c25.52,29.22,39.14,69.59,41.54,123.02
		c0.62,13.69,7.34,24.56,18.93,30.6c8.77,4.57,17.52,4.91,19.19,4.93h1.35c1.67-0.02,10.42-0.36,19.19-4.93
		c11.58-6.04,18.31-16.91,18.93-30.6c2.4-53.47,16.04-93.85,41.59-123.07l7.86-7.94c29.67-29.97,72.3-45.8,130.35-48.41
		c13.69-0.62,24.56-7.34,30.6-18.93c4.57-8.77,4.91-17.53,4.93-19.19V363.01z"/>
</g>
</svg>
