<svg id="Layer_1" data-name="Layer 1" xmlns="http://www.w3.org/2000/svg" viewBox="0 0 1366 768"><defs><style>.cls-1,.cls-4{fill:#fff;}.cls-2,.cls-3{fill:none;stroke:#fff;stroke-miterlimit:10;stroke-width:4px;}.cls-2{stroke-linecap:round;}.cls-4{font-size:36px;font-family:BDJupiter-Bold, BD Jupiter;font-weight:700;}</style></defs><circle class="cls-1" cx="154.13" cy="380.52" r="35.61"/><ellipse class="cls-1" cx="316.79" cy="380.52" rx="35.61" ry="31.16"/><ellipse class="cls-1" cx="492.91" cy="375.63" rx="57.77" ry="21.41"/><ellipse class="cls-1" cx="698.5" cy="375.86" rx="69.76" ry="15.52"/><ellipse class="cls-1" cx="847.88" cy="537.2" rx="30.95" ry="10.59"/><path class="cls-2" d="M846.28,145.4A64.9,64.9,0,0,1,896.83,222a51.91,51.91,0,0,1-61.28,40.44,41.54,41.54,0,0,1-32.36-49,33.23,33.23,0,0,1,39.22-25.88,26.57,26.57,0,0,1,20.71,31.37A21.27,21.27,0,0,1,838,235.48a17,17,0,0,1-13.25-20.08,13.62,13.62,0,0,1,16.06-10.61,10.89,10.89,0,0,1,8.48,12.86c-1,4.71-6.95,5.83-8.29.66"/><path class="cls-2" d="M785.76,200.51A50.76,50.76,0,0,1,853,175.23,40.61,40.61,0,0,1,873.17,229a32.48,32.48,0,0,1-43,16.17,26,26,0,0,1-12.94-34.4,20.79,20.79,0,0,1,27.52-10.35,16.63,16.63,0,0,1,8.28,22,13.3,13.3,0,0,1-17.61,6.62,10.64,10.64,0,0,1-5.3-14.09,8.52,8.52,0,0,1,11.27-4.24c3.43,1.55,4.09,7.32-.37,7.59"/><path class="cls-2" d="M785.76,200.51c-3.94,8.87-10,41.31,14.89,64.27,13.58,12.52,31,14.16,38.11,14.83a78.89,78.89,0,0,0,43-8.47"/><circle class="cls-1" cx="1028.67" cy="212.67" r="7.87"/><circle class="cls-1" cx="1198.87" cy="212.67" r="7.87"/><circle class="cls-1" cx="843.23" cy="216.86" r="7.87"/><path class="cls-2" d="M1032.08,288.48c-33.32.79-61-26.48-61.81-60.9-.65-27.55,20.43-50.39,47.08-51,21.33-.5,34.17,19.63,34.17,31.13,0,14.42-8.1,23.69-24.66,21.56-1.87-.25-13-2.48-12.67-16.58.33-13.38,20-14,20-3.54"/><path class="cls-2" d="M1036.15,137c32.39,7.83,52.1,41.31,44,74.78-6.47,26.78-33.61,39.5-59.36,29.91-20-7.45-20.79-26.08-16.78-36.86,3.68-9.89,16-17.62,28.75-12.15,1.15.5,14.43,7.56,10.46,21.09-3.77,12.85-21.15,9.08-18.44-1.07"/><path class="cls-2" d="M1163.93,142.41c37.62-23.08,71.68-3.7,77.13,22.1,4.42,20.93.77,49.25-37.29,52"/><path class="cls-2" d="M1235,281.25c-37.61,23.08-71.68,3.7-77.13-22.1-4.42-20.93-.77-49.24,37.3-52"/><path class="cls-3" d="M824.51,534.12c-6.84.3-12.75,4.49-14.79,10.39-3.13,9.06,7.84,18.46,9.59,20,14.89,12.9,44.82,14,63.93-2.39,12.38-10.62,20.4-28.09,17.58-45.55-4.35-27-32.53-41.9-54.74-43.95-24-2.22-47.74,9.94-61.93,31.16"/><path class="cls-3" d="M868.17,541.35c6.84-.3,12.75-4.5,14.78-10.39,3.14-9.07-7.83-18.46-9.59-20-14.88-12.89-44.82-14-63.92,2.4C797.06,524,789,541.46,791.86,558.93c4.35,27,32.53,41.89,54.73,44,24,2.22,47.75-10,61.93-31.17"/><ellipse class="cls-1" cx="1028.27" cy="537.2" rx="30.95" ry="10.59"/><path class="cls-3" d="M999,537.2c-4.09.62-7.92,6.82-8.73,12.34-2,13.8,13.55,26.4,23.92,31.49,20.07,9.84,46.69,4.27,63.28-11.34,14.4-13.55,17.16-30.83,17.94-36.2,4.39-30.18-12.7-62.27-40-77.13-20.13-11-40.14-9.48-49.11-8.19"/><path class="cls-3" d="M1055.64,540.25c4.08.71,9.68-4,12.2-8.93,6.31-12.43-4.46-29.34-12.67-37.45-15.91-15.71-42.92-18.9-63.6-9.37-18,8.27-26.08,23.78-28.53,28.62-13.75,27.22-7.74,63.08,13.4,85.84,15.59,16.8,35,21.74,44,23.37"/><ellipse class="cls-1" cx="1210.81" cy="537.2" rx="44.14" ry="10.59"/><path class="cls-2" d="M1250.39,538.55a15.68,15.68,0,0,0,8-4c10.08-10,1.76-34.49-6.55-47.94-2.54-4.12-15.4-25-41.17-30.2-23.74-4.83-48.92,5.48-64.62,26.19"/><path class="cls-2" d="M1170.27,536.1a15.75,15.75,0,0,0-8.34,3.31c-10.9,9.07-4.7,34.22,2.42,48.33,2.18,4.32,13.2,26.17,38.44,33.61,23.23,6.85,49.2-1.26,66.62-20.55"/><text class="cls-4" transform="translate(135.13 467.46)">EO</text><text class="cls-4" transform="translate(297.87 467.46)">E3</text><text class="cls-4" transform="translate(475.55 467.46)">E7</text><text class="cls-4" transform="translate(678.78 467.46)">SO</text><text class="cls-4" transform="translate(825.73 331.48)">Sa</text><text class="cls-4" transform="translate(1012.7 331.48)">Sb</text><text class="cls-4" transform="translate(1181.63 331.48)">Sc</text><text class="cls-4" transform="translate(816.93 663.49)">SBa</text><text class="cls-4" transform="translate(1002.09 663.49)">SBb</text><text class="cls-4" transform="translate(1175.99 663.49)">SBc</text></svg>