<svg id="Layer_1" data-name="Layer 1" xmlns="http://www.w3.org/2000/svg" viewBox="0 0 626.7 625.6"><defs><style>.cls-1{fill:#fff;stroke:#000;stroke-miterlimit:10;stroke-width:3px;}</style></defs><path class="cls-1" d="M620.12,288.4c-7.43-14.25-20.81-22.53-37.66-23.29C511,261.9,458.57,242.42,422.05,205.54l-9.14-9.24c-31.79-36-48.73-85.89-51.71-152.06-.76-16.85-9-30.22-23.29-37.66A56.29,56.29,0,0,0,314.3.51h-1.66A55.92,55.92,0,0,0,289,6.58C274.77,14,266.5,27.39,265.74,44.24c-3,65.76-19.74,115.45-51.16,151.4l-.09-.09-9.87,10c-36.51,36.88-89,56.36-160.41,59.57-16.85.76-30.22,9-37.66,23.29A56.32,56.32,0,0,0,.48,312v1.66a55.92,55.92,0,0,0,6.07,23.61c7.43,14.25,20.81,22.53,37.66,23.29,71.43,3.21,123.89,22.69,160.41,59.57l9.87,10,.12-.12c31.4,36,48.16,85.64,51.12,151.39.76,16.85,9,30.22,23.29,37.66a56.29,56.29,0,0,0,23.61,6.07h1.66A55.92,55.92,0,0,0,337.9,619c14.25-7.43,22.53-20.81,23.29-37.66,2.95-65.8,19.74-115.49,51.18-151.45l9.67-9.77c36.51-36.88,89-56.36,160.41-59.57,16.85-.76,30.22-9,37.66-23.29a56.32,56.32,0,0,0,6.07-23.61V312A55.92,55.92,0,0,0,620.12,288.4Zm-231.42,79a9.23,9.23,0,0,1-11.69-.42l-63.67-59.75-63.68,59.75a8.91,8.91,0,0,1-6.09,2.31,9,9,0,0,1-5.6-1.89,6.48,6.48,0,0,1-.48-10.1l69.76-65.47a9.2,9.2,0,0,1,12.17,0l69.76,65.47A6.48,6.48,0,0,1,388.7,367.36Zm0-65.84A9.23,9.23,0,0,1,377,301.1l-63.67-59.75L249.66,301.1a8.91,8.91,0,0,1-6.09,2.31,9,9,0,0,1-5.6-1.89,6.48,6.48,0,0,1-.48-10.1L307.25,226a9.17,9.17,0,0,1,12.17,0l69.76,65.46A6.48,6.48,0,0,1,388.7,301.52Z"/></svg>